<svg id="BGs" xmlns="http://www.w3.org/2000/svg" viewBox="0 0 64 64"><defs><style>.cls-1{fill:#000;}</style></defs><title>AT - AT - Monta Provas</title><path class="cls-1" d="M48.47,26.5,55,22.73a2,2,0,0,0,0-3.46L33,6.58a2,2,0,0,0-2,0L9,19.27a2,2,0,0,0,0,3.46l6.53,3.77L9,30.27a2,2,0,0,0,0,3.46l6.53,3.77L9,41.27a2,2,0,0,0,0,3.46L31,57.42a2,2,0,0,0,2,0L55,44.73a2,2,0,0,0,0-3.46L48.47,37.5,55,33.73a2,2,0,0,0,0-3.46ZM9,21,32,7.73,55,21l-8,4.63-1.5.87-8,4.63-1.5.87L32,34.27,28.07,32l-1.5-.87-8-4.63L17,25.63ZM55,43,32,56.27,9,43l8-4.63L32,47l15-8.63Zm-8-6.37-1.5.87L32,45.27,18.53,37.5,17,36.63,9,32l8-4.63,8,4.63,1.5.87L32,36l5.43-3.13,1.5-.87,8-4.63L55,32Z"/></svg>