<?xml version="1.0" standalone="no"?><!DOCTYPE svg PUBLIC "-//W3C//DTD SVG 1.1//EN" "http://www.w3.org/Graphics/SVG/1.1/DTD/svg11.dtd"><svg class="icon" height="512" viewBox="0 0 1382 1024" version="1.1" xmlns="http://www.w3.org/2000/svg"><path d="M1221.612 605.491l-36.668 9.945v-36.472l2.018-0.559c27.315-7.457 47.062-32.048 47.062-61.251 0-5.889-0.803-11.592-2.306-17.003l-95.817-348.233c-7.784-27.194-32.423-46.763-61.633-46.763-6.007 0-11.819 0.827-17.332 2.375l-785.292 212.746c-11.512 3.228-21.358 9.244-29.121 17.285l-52.724-6.683c10.291-21.026 29.581-36.285 52.714-40.863l830.387-225.096c5.94-1.682 12.76-2.649 19.807-2.649 34.402 0 63.42 23.046 72.459 54.541l109.184 397.014c1.656 5.865 2.608 12.601 2.608 19.558 0 34.362-23.219 63.302-54.823 71.987zM1158.247 438.178v443.241c-0.165 44.54-36.309 80.581-80.872 80.581-0.119 0-0.24 0-0.359-0.001h-933.9c-0.072 0-0.158 0-0.244 0-44.562 0-80.706-36.041-80.872-80.565v-443.257c0.165-44.553 36.321-80.605 80.895-80.605 0.112 0 0.222 0 0.334 0.001h933.902c0.065 0 0.143 0 0.219 0 44.575 0 80.73 36.052 80.895 80.588zM170.348 397.549c-0.080 0-0.174-0.001-0.268-0.001-37.843 0-68.538 30.602-68.69 68.408v389.689c0.152 37.822 30.847 68.423 68.69 68.423 0.094 0 0.188 0 0.282-0.001h878.393c0.080 0 0.174 0.001 0.268 0.001 37.843 0 68.538-30.602 68.69-68.408v-389.81c-0.152-37.822-30.847-68.422-68.69-68.422-0.094 0-0.188 0-0.282 0.001h-878.393zM1090.528 824.521c-8.777-6.412-19.78-10.259-31.684-10.259-29.74 0-53.872 24.020-54.052 53.718 0.067 9.705 2.722 18.757 7.306 26.539l-803.87-0.456c4.431-7.542 7.056-16.607 7.077-26.284-0.232-29.512-24.387-53.524-54.149-53.524-11.502 0-22.167 3.586-30.937 9.701l0.176-323.725c8.593 5.998 19.258 9.585 30.76 9.585 29.763 0 53.917-24.012 54.147-53.72-0.032-11.891-3.952-22.839-10.553-31.665l810.4 0.204c-6.476 8.692-10.373 19.641-10.383 31.498 0.167 29.653 24.293 53.675 54.027 53.675 11.915 0 22.928-3.857 31.86-10.388l-0.153 325.103zM603.23 485.885c-84.203 0-152.48 80.872-152.48 180.638s68.277 180.612 152.48 180.612 152.48-80.872 152.48-180.612-68.18-180.637-152.407-180.637zM678.606 713.426c0.024 0.665 0.038 1.445 0.038 2.228 0 35.519-28.793 64.313-64.313 64.313-1.477 0-2.942-0.050-4.393-0.148l0.197 29.676h-14.589v-29.664c-38.612-2.164-68.787-18.212-68.787-71.656h27.379c1.872 33.044 10.285 44.181 41.336 49.117v-81.845c-31.756-7.417-64.435-18.236-64.435-60.788 0.655-33.443 27.921-60.301 61.458-60.301 1.047 0 2.089 0.026 3.123 0.078l-0.145-19.774h14.589v19.768c0.927-0.051 2.012-0.080 3.103-0.080 32.733 0 59.358 26.155 60.114 58.706l-26.453 0.070c-0.766-19.858-16.843-35.718-36.719-36.132l-0.022 73.796c42.771 12.304 68.52 19.695 68.52 62.636zM610.136 757.193c0.959 0.086 2.075 0.135 3.202 0.135 20.935 0 37.907-16.972 37.907-37.907 0-0.398-0.007-0.795-0.019-1.19 0.006-0.133 0.007-0.359 0.007-0.585 0-15.594-10.075-28.835-24.071-33.568l-17.051-5.325v78.659zM595.546 576.823c-0.652-0.043-1.412-0.068-2.178-0.068-19.27 0-34.893 15.622-34.893 34.893 0 0.349 0.006 0.696 0.015 1.043 1.403 19.388 17.424 34.65 37.053 34.841l0.003-70.708zM1094.201 205.459c12.291-3.413 22.422-11.082 28.938-21.283l46.755 186.019c-16.268-23.858-43.319-39.318-73.981-39.318-0.054 0-0.11 0-0.164 0h-286.911c-24.669-24.814-58.827-40.171-96.572-40.171-11.184 0-22.053 1.348-32.453 3.891-27.555 7.825-51.231 25.030-67.288 47.962l-283.473-11.682 705.138-190.995c-2.088 5.243-3.299 11.32-3.299 17.68 0 4.611 0.637 9.072 1.826 13.302 6.029 20.999 25.369 36.358 48.295 36.358 4.691 0 9.232-0.643 13.541-1.847zM1184.944 476.159v-51.256l14.978 54.442c-5.236-2.055-11.295-3.292-17.63-3.395z" /></svg>