<?xml version="1.0" standalone="no"?><!DOCTYPE svg PUBLIC "-//W3C//DTD SVG 1.1//EN" "http://www.w3.org/Graphics/SVG/1.1/DTD/svg11.dtd"><svg class="icon" height="512" viewBox="0 0 1095 1024" version="1.1" xmlns="http://www.w3.org/2000/svg"><path d="M184.502 3.426l397.896 0c0.119 44.034-0.19 88.068 0.161 132.103 1.72 46.366 24.058 96.021 68.172 116.078 14.805 6.622 31.259 7.853 47.274 7.662 47.076 0.02 94.141-0.08 141.215 0.05 0.08 84.527 0.07 169.065 0 253.602-46.086-4.691-93.539-0.631-137.085 15.806-58.018 21.517-108.704 62.18-142.225 114.217-99.692 0.19-199.384-0.05-299.075 0.119-20.076-0.15-39.203 10.573-50.917 26.628-13.004 17.095-15.595 40.964-8.073 60.891 9.352 23.508 33.561 40.532 59.049 40.252 84.646 0.13 169.294 0.02 253.941 0.05-5.952 67.723 10.683 137.624 50.095 193.403-120.358 0.02-240.718 0.02-361.086 0-16.235 0.2-32-4.961-46.354-12.214-28.7-14.626-53.597-36.991-70.603-64.4-10.943-16.877-17.336-36.782-17.106-56.978-0.039-229.403 0.011-458.807-0.02-688.221-1.42-38.902 18.176-75.955 45.304-102.783 18.975-18.356 42.513-33.8 69.432-36.26M251.233 388.038c-21.638 3.211-40.763 18.695-49.126 38.802-8.152 20.737-5.091 45.895 9.163 63.29 11.943 15.435 30.97 25.239 50.617 24.929 128.35 0.039 256.713 0.08 385.074-0.02 30.54 0.311 58.679-24.597 62.678-54.737 6.972-36.633-24.708-73.374-61.67-73.052-126.701-0.18-253.402-0.02-380.102-0.08-5.563-0.011-11.144-0.011-16.635 0.871L251.233 388.038zM646.94 3.426l10.173 0c26.859 4.801 46.915 25.079 67.431 41.474 35.612 30.88 72.923 60.81 101.563 98.581 11.303 14.205 14.855 32.46 13.114 50.227-50.396 0.11-100.792 0.08-151.179 0.011-8.471 0.19-16.185-4.551-21.176-11.153-12.415-14.715-18.875-34.021-19.877-53.086-0.119-42.023-0.02-84.036-0.05-126.05L646.94 3.426zM799.697 683.711c-48.412 0-87.798 39.385-87.798 87.798 0 48.409 39.385 87.794 87.798 87.794 48.409 0 87.798-39.385 87.798-87.794C887.498 723.097 848.109 683.711 799.697 683.711zM850.439 746.314c-1.092 3.31-2.479 7.257-4.131 11.857-1.652 4.586-3.442 9.36-5.379 14.326-1.923 4.965-3.947 10.063-6.057 15.296-2.111 5.233-4.183 10.237-6.2 15.018-2.573 5.88-6.662 10.289-12.264 13.227-5.609 2.942-11.492 4.319-17.643 4.134-6.158-0.184-12.031-2.024-17.64-5.515-5.598-3.484-9.781-8.728-12.542-15.706-1.276-3.307-2.747-7.26-4.409-11.847-1.652-4.6-3.397-9.284-5.237-14.062-1.829-4.774-3.581-9.465-5.233-14.051-1.655-4.597-3.122-8.731-4.412-12.406-1.471-3.491-1.147-6.707 0.963-9.642 2.114-2.942 4.774-5.104 7.997-6.474 3.209-1.377 6.52-1.885 9.92-1.523 3.401 0.369 5.835 2.024 7.309 4.962 0.918 2.024 2.017 4.694 3.3 7.997 1.29 3.307 2.757 6.982 4.412 11.026 1.655 4.04 3.355 8.178 5.101 12.396 1.742 4.228 3.63 8.182 5.65 11.854 1.836 3.675 4.458 5.65 7.855 5.922 3.397 0.275 6.019-1.972 7.851-6.746 1.839-4.412 3.362-8.317 4.552-11.711 1.203-3.404 2.208-6.572 3.036-9.51 0.821-2.942 1.659-5.741 2.479-8.408 0.828-2.664 1.697-5.553 2.615-8.686 1.652-4.59 4.225-7.438 7.716-8.536 3.491-1.102 6.989-1.012 10.473 0.275 3.498 1.28 6.297 3.446 8.408 6.474C851.04 739.283 851.544 742.645 850.439 746.314zM929.258 863.58c18.533-26.005 29.483-57.776 29.483-92.071 0-87.697-71.344-159.04-159.04-159.04s-159.04 71.347-159.04 159.04c0 34.382 11.002 66.222 29.625 92.266l-69.216 105.712 85.76-6.506 29.775 61.017 51.152-96.671c10.324 2.111 21.005 3.223 31.944 3.223 11.023 0 21.781-1.13 32.177-3.275l51.18 96.723 29.775-61.017 85.76 6.506L929.258 863.58zM691.037 771.509c0-59.914 48.746-108.66 108.66-108.66s108.66 48.746 108.66 108.66c0 59.911-48.749 108.657-108.66 108.657C739.783 880.166 691.037 831.42 691.037 771.509z" /></svg>