<svg id="BGs" xmlns="http://www.w3.org/2000/svg" viewBox="0 0 64 64"><defs><style>.cls-1{fill:#000;}</style></defs><title>MEDCODE - Slide de Aula</title><path class="cls-1" d="M17,49v2H44v.5a1.5,1.5,0,0,0,3,0V49H17Z"/><rect class="cls-1" x="11" y="31" width="14" height="2"/><rect class="cls-1" x="11" y="35" width="14" height="2"/><rect class="cls-1" x="11" y="39" width="14" height="2"/><rect class="cls-1" x="11" y="44" width="2" height="2"/><rect class="cls-1" x="15" y="44" width="2" height="2"/><rect class="cls-1" x="19" y="44" width="2" height="2"/><rect class="cls-1" x="23" y="44" width="2" height="2"/><path class="cls-1" d="M8.08,49V28H27V26H8a2,2,0,0,0-2,2V49a2,2,0,0,0,2,2h4v.5a1.5,1.5,0,0,0,3,0V49H8.08Z"/><path class="cls-1" d="M56,26H51v2h4.92V49H49v2h7a2,2,0,0,0,2-2V28A2,2,0,0,0,56,26Z"/><path class="cls-1" d="M28.65,33.28A10.5,10.5,0,1,0,40.78,21.15,10.48,10.48,0,0,0,28.65,33.28Zm18.73-.34a8.5,8.5,0,1,1-9.82-9.82A8.5,8.5,0,0,1,47.38,32.94Z"/><path class="cls-1" d="M32.5,31.5A6.5,6.5,0,1,0,39,25,6.5,6.5,0,0,0,32.5,31.5ZM39,27a4.5,4.5,0,1,1-4.5,4.5A4.49,4.49,0,0,1,39,27Z"/><polygon class="cls-1" points="40 31 41 31 41 30 41 29 40 29 39 29 39 30 40 30 40 31"/><path class="cls-1" d="M40,17.05V11H38v6.05c.33,0,.66-.05,1-.05S39.67,17,40,17.05Z"/><path class="cls-1" d="M46.76,13.79,45,12.87,42.55,17.6a11.56,11.56,0,0,1,1.83.81Z"/><path class="cls-1" d="M51.83,18.59l-1.42-1.42-3.35,3.36a10.78,10.78,0,0,1,1.23,1.6Z"/><path class="cls-1" d="M35.45,17.6,33,12.87l-1.78.92,2.38,4.62A11.56,11.56,0,0,1,35.45,17.6Z"/><path class="cls-1" d="M30.94,20.53l-3.35-3.36-1.42,1.42,3.54,3.54A10.78,10.78,0,0,1,30.94,20.53Z"/></svg>