<?xml version="1.0" encoding="utf-8"?>
<!-- Generator: Adobe Illustrator 22.1.0, SVG Export Plug-In . SVG Version: 6.00 Build 0)  -->
<svg version="1.1" id="Camada_1" xmlns="http://www.w3.org/2000/svg" xmlns:xlink="http://www.w3.org/1999/xlink" x="0px" y="0px"
	 viewBox="0 0 159.2 159.2" style="enable-background:new 0 0 159.2 159.2;" xml:space="preserve">
<style type="text/css">
	.st0{fill:#FFFFFF;}
</style>
<path vector-effect="non-scaling-stroke" class="st0" d="M76.1,83.1H63.3v12.8h12.8V83.1z M95.9,0H83.1v56.3h12.8V0z M43.6,43.5H0.1
	v12.8h56.3V0H43.6V43.5z M63.4,159.2h12.8v-56.3H63.4V159.2z M63.4,56.3h12.8V0H63.4V56.3z M0,76.1h56.3V63.3H0V76.1z M76.1,63.3
	H63.3v12.8h12.8V63.3z M0,115.7h43.5v43.5h12.8v-56.3H0V115.7z M0,95.9h56.3V83.1H0V95.9z M102.9,95.9h56.3V83.1h-56.3V95.9z
	 M115.7,0h-12.8v56.3h56.3V43.5h-43.5V0z M102.9,76.1h56.3V63.3h-56.3V76.1z M83.2,95.9h12.7V83.1H83.1L83.2,95.9L83.2,95.9z
	 M83.1,159.2h12.8v-56.3H83.1V159.2z M102.9,159.2h12.8v-43.5h43.5v-12.8h-56.3V159.2z M83.2,76.1h12.7V63.3H83.1L83.2,76.1
	L83.2,76.1z"/>
</svg>
