<?xml version="1.0" encoding="utf-8"?>
<!-- Generator: Adobe Illustrator 21.0.0, SVG Export Plug-In . SVG Version: 6.00 Build 0)  -->
<svg version="1.1" id="Слой_1" xmlns="http://www.w3.org/2000/svg" xmlns:xlink="http://www.w3.org/1999/xlink" x="0px" y="0px"
	 viewBox="0 0 32 32" style="enable-background:new 0 0 32 32;" xml:space="preserve">
<style type="text/css">
	.st0{fill:#FFFFFF;}
</style>
<g id="Sign_Out">
	<path class="st0" d="M17,2h13v28H17c-0.6,0-1,0.4-1,1s0.4,1,1,1h14c0.6,0,1-0.4,1-1V1c0-0.6-0.4-1-1-1L17,0c-0.6,0-1,0.4-1,1
		S16.4,2,17,2z"/>
	<path class="st0" d="M0.3,16.7l6.9,7c0.4,0.4,1,0.4,1.4,0c0.4-0.4,0.4-1,0-1.4L3.4,17H24c0.6,0,1-0.5,1-1s-0.4-1-1-1H3.4l5.2-5.3
		c0.4-0.4,0.4-1,0-1.4c-0.4-0.4-1-0.4-1.4,0l-6.9,7C-0.1,15.7-0.1,16.3,0.3,16.7z"/>
</g>
</svg>
