<svg version="1.1" overflow="visible" preserveAspectRatio="none" viewBox="0 0 66 66" id="BGs_1535121630868" xmlns="http://www.w3.org/2000/svg" xmlns:xlink="http://www.w3.org/1999/xlink" x="0px" y="0px" xml:space="preserve" width="32" height="32"><g transform="translate(1, 1)"><title>READER - CONTRIBUIR</title><path d="M60.1,45.7c0.1-0.8,0.1-1.6,0.1-2.5l0,0c-0.2-1.2-1.1-2.4-2.2-3l-3.6-1.9c-0.4-0.2-0.5-0.6-0.5-1c-0.1-0.5,0.1-1.2,0.5-1.6&#10;&#9;c0.3-0.4,0.5-0.9,0.7-1.4c0.1-0.1,0.1-0.2,0.1-0.2c0,0,0-0.1,0.1-0.1l0-0.1c0.1-0.3,0.2-0.5,0.4-0.7l0.2-0.2v-0.1&#10;&#9;c0.3-0.8,0.3-3-0.2-3.7c0,0,0-0.1,0-0.3v-2.3c0-1.9-1.3-3.5-3.2-3.9c-0.8-0.2-1.6-0.4-2.4-0.4H50c-0.9,0-1.7,0.1-2.4,0.4&#10;&#9;c-1.8,0.4-3.2,2.1-3.2,3.9v2.4c0,0.2,0,0.2,0,0.3l0,0c-0.4,0.7-0.4,2.8-0.1,3.6V33l0.2,0.2c0.1,0.1,0.2,0.2,0.3,0.4&#10;&#9;c0.1,0.1,0.1,0.2,0.2,0.4c0,0,0,0.1,0.1,0.1c0,0.1,0.1,0.2,0.1,0.2c0.2,0.5,0.4,1,0.7,1.4c0.3,0.4,0.5,0.9,0.5,1.7&#10;&#9;c0,0.3-0.2,0.8-0.5,0.9l-3.6,1.9c-0.4,0.2-0.7,0.4-1.1,0.7l-1.2-0.6c-0.8-0.5-1.3-1.3-1.3-2.2c-0.1-1.3,0.2-2.5,0.9-3.6&#10;&#9;c0.5-0.9,0.9-1.7,1.2-2.5c0.1-0.3,0.2-0.6,0.3-0.8c0.2-0.6,0.4-1.1,0.8-1.6l0.1-0.1v-0.2c0.6-1.2,0.5-5.4-0.1-6.5&#10;&#9;c-0.1-0.3-0.2-0.6-0.2-0.8c0-0.5,0-1,0-1.5c0-1,0-2,0-2.9c0-3.2-2.2-6-5.2-6.8c-1.7-0.5-3.1-0.7-4.5-0.7c-1.6,0-3.1,0.2-4.5,0.7&#10;&#9;c-3,0.8-5.1,3.5-5.2,6.8c-0.1,0.9,0,1.9,0,2.9c0,0.5,0,1,0,1.5c0,0.3-0.1,0.6-0.2,0.8c-0.6,1.2-0.7,5.3-0.1,6.5v0.2l0.1,0.1&#10;&#9;c0.5,0.5,0.7,1.2,1,1.9c0.1,0.2,0.1,0.4,0.2,0.5c0.3,0.9,0.7,1.7,1.2,2.5c0.5,0.8,1.1,2.1,0.9,3.6c0,1-0.5,1.9-1.3,2.2l-1,0.5&#10;&#9;c-0.3-0.3-0.7-0.6-1-0.7l-3.6-1.9c-0.4-0.2-0.5-0.6-0.5-1c-0.1-0.5,0.1-1.2,0.5-1.6c0.3-0.4,0.5-0.9,0.7-1.4&#10;&#9;c0.1-0.1,0.1-0.2,0.1-0.2c0,0,0-0.1,0.1-0.1l0-0.1c0.1-0.3,0.2-0.5,0.5-0.7l0.2-0.2v-0.1c0.3-0.8,0.3-3-0.2-3.7c0,0,0-0.1,0-0.3&#10;&#9;v-2.3c0-1.9-1.3-3.5-3.2-3.9c-0.8-0.2-1.6-0.4-2.4-0.4h-0.1c-0.9,0-1.7,0.1-2.4,0.4c-1.8,0.4-3.2,2.1-3.2,3.9v2.4c0,0.2,0,0.2,0,0.3&#10;&#9;l0,0c-0.4,0.7-0.4,2.8-0.1,3.6V33l0.4,0.1c0.1,0.1,0.2,0.2,0.2,0.4c0.1,0.1,0.1,0.2,0.2,0.4C9,34,9,34,9,34.1c0,0.1,0.1,0.2,0.1,0.2&#10;&#9;c0.2,0.5,0.4,1,0.7,1.4c0.3,0.4,0.5,0.9,0.5,1.7c0,0.3-0.2,0.8-0.5,0.9l-3.6,1.9c-1.3,0.5-2.2,1.6-2.4,3v2.9H15&#10;&#9;c-0.7,1-1.1,2.1-1.2,3.1c-0.1,1.5-0.1,3,0,4.6l0,0.2h36.3l0-0.2c0.1-1.5,0.1-3,0-4.6c-0.2-1-0.6-2.1-1.2-3.1h11.2L60.1,45.7z&#10;&#9; M27.3,38.1c0.1-1.7-0.3-3.3-1.2-4.7c-0.5-0.7-0.9-1.7-1.2-2.7c-0.1-0.4-0.3-0.8-0.4-1.2l-0.3-0.6l-0.1-0.1&#10;&#9;c-0.5-0.4-0.7-0.9-0.7-1.4c0-0.3,0-0.6,0-0.9c0-0.6,0-1.2,0-1.8c0-0.4,0.1-0.8,0.3-1.1c0.5-0.5,0.6-1.1,0.6-1.5c0-0.4,0-0.9,0-1.3&#10;&#9;c0-0.9,0-1.7,0-2.6c-0.2-3,1.5-5.1,4.6-5.8c1-0.3,2-0.4,3.1-0.4c1.2,0,2.3,0.1,3.2,0.4c2.9,0.7,4.6,2.8,4.5,5.8&#10;&#9;c-0.1,0.9,0,1.8,0,2.6c0,0.4,0,0.9,0,1.3c-0.1,0.5,0.1,1.1,0.6,1.6c0.2,0.2,0.3,0.6,0.3,1.1c0.1,0.6,0,1.2,0,1.8c0,0.3,0,0.6,0,0.9&#10;&#9;c0,0.5-0.3,1.1-0.7,1.4l-0.1,0.1c0,0-0.1,0.1-0.1,0.1c-0.1,0.1-0.2,0.3-0.2,0.5c-0.1,0.4-0.3,0.7-0.4,1.1c-0.3,1-0.7,2-1.2,2.7&#10;&#9;c-0.9,1.3-1.3,3-1.2,4.7c-0.1,1.8,0.8,3.3,2.4,4.1l6.5,3.6c2.1,1.2,3,3.3,2.7,6.2H15.7c-0.4-2.8,0.6-5,2.7-6.2l6.5-3.6&#10;&#9;C26.4,41.5,27.4,39.8,27.3,38.1z M12,37.4c0.1-0.9-0.2-1.8-0.7-2.7c-0.2-0.3-0.3-0.6-0.4-0.9c0-0.1-0.1-0.2-0.1-0.4&#10;&#9;c0-0.1-0.1-0.2-0.1-0.3c0-0.1-0.1-0.2-0.1-0.3c0-0.2-0.2-0.4-0.4-0.5c-0.1-0.1-0.2-0.3-0.2-0.4v-1.4c0-0.1,0-0.1,0-0.2&#10;&#9;c0-0.1,0-0.1,0.1-0.2c0.3-0.3,0.4-0.7,0.3-1l0-2.1c-0.1-1.4,0.7-2.4,2.2-2.7c0.5-0.1,1.1-0.2,1.7-0.2c0.6,0,1.2,0.1,1.7,0.2&#10;&#9;c1.4,0.3,2.2,1.2,2.2,2.7V29c0,0.3,0.1,0.8,0.4,1c0.1,0.1,0.1,0.2,0.1,0.4v1.4c0,0.1-0.1,0.3-0.3,0.4l-0.1,0&#10;&#9;c-0.1,0.1-0.2,0.2-0.3,0.5c0,0.1-0.1,0.2-0.1,0.3c0,0.1-0.1,0.2-0.1,0.3c-0.1,0.2-0.1,0.3-0.2,0.5c-0.1,0.3-0.2,0.5-0.4,0.8&#10;&#9;c-0.5,0.8-0.8,1.8-0.7,2.6c-0.1,1,0.5,2.1,1.5,2.5l3.6,1.9c0,0,0.1,0.1,0.1,0.1l-3.9,2.1c-0.2,0.1-0.4,0.2-0.5,0.3&#10;&#9;c-0.1,0-0.1,0.1-0.2,0.1H5.5c0-1.2,0.5-2.1,1.4-2.5l3.6-1.9C11.5,39.4,12.1,38.4,12,37.4z M42.9,41.8l3.6-1.9c1-0.5,1.6-1.5,1.5-2.5&#10;&#9;c0.1-0.9-0.2-1.8-0.7-2.7c-0.2-0.3-0.3-0.6-0.4-0.9c0-0.1-0.1-0.2-0.1-0.4c0-0.1-0.1-0.2-0.1-0.3c0-0.1-0.1-0.2-0.1-0.3&#10;&#9;c0-0.2-0.2-0.4-0.4-0.5c-0.1-0.1-0.2-0.3-0.2-0.4v-1.4c0-0.1,0-0.1,0-0.2c0-0.1,0-0.1,0.1-0.2c0.3-0.3,0.4-0.7,0.3-1l0-2.1&#10;&#9;c-0.1-1.4,0.7-2.4,2.2-2.7c0.5-0.1,1.1-0.2,1.7-0.2c0.6,0,1.2,0.1,1.7,0.2c1.4,0.3,2.2,1.2,2.2,2.7V29c0,0.3,0.1,0.8,0.4,1&#10;&#9;c0.1,0.1,0.1,0.2,0.1,0.4v1.4c0,0.1-0.1,0.3-0.3,0.4l-0.1,0.1c-0.1,0.1-0.2,0.2-0.3,0.5c0,0.1-0.1,0.2-0.1,0.3&#10;&#9;c0,0.1-0.1,0.2-0.1,0.3c-0.1,0.2-0.1,0.3-0.2,0.5c-0.1,0.3-0.2,0.5-0.4,0.8c-0.5,0.8-0.8,1.8-0.7,2.6c-0.1,1,0.5,2.1,1.5,2.5&#10;&#9;l3.6,1.9c1,0.5,1.4,1.4,1.3,2.6H47.2c-0.2-0.1-0.4-0.2-0.5-0.3c-0.1,0-0.1,0-0.1-0.1l-3.7-2C42.8,41.8,42.9,41.8,42.9,41.8z" vector-effect="non-scaling-stroke"/></g></svg>