<svg id="BGs" xmlns="http://www.w3.org/2000/svg" viewBox="0 0 64 64"><defs><style>.cls-1{fill:#000;}</style></defs><title>MEDCODE - MEDCODE</title><path class="cls-1" d="M8,49H6v7a2,2,0,0,0,2,2h7V56H8Z"/><path class="cls-1" d="M8,8h7V6H8A2,2,0,0,0,6,8v7H8Z"/><path class="cls-1" d="M56,56H49v2h7a2,2,0,0,0,2-2V49H56Z"/><path class="cls-1" d="M56,6H49V8h7v7h2V8A2,2,0,0,0,56,6Z"/><path class="cls-1" d="M12,22H22V12H12Zm2-8h6v6H14Z"/><rect class="cls-1" x="42" y="12" width="10" height="10"/><rect class="cls-1" x="27" y="12" width="10" height="10"/><path class="cls-1" d="M12,52H22V42H12Zm2-8h6v6H14Z"/><path class="cls-1" d="M52,42H42V52H52Zm-2,8H44V44h6Z"/><rect class="cls-1" x="27" y="42" width="10" height="10"/><rect class="cls-1" x="12" y="27" width="10" height="10"/><path class="cls-1" d="M52,27H42V37H52Zm-2,8H44V29h6Z"/><path class="cls-1" d="M27,37H37V27H27Zm2-8h6v6H29Z"/></svg>