<?xml version="1.0" encoding="iso-8859-1"?>
<!-- Generator: Adobe Illustrator 16.0.0, SVG Export Plug-In . SVG Version: 6.00 Build 0)  -->
<!DOCTYPE svg PUBLIC "-//W3C//DTD SVG 1.1//EN" "http://www.w3.org/Graphics/SVG/1.1/DTD/svg11.dtd">
<svg version="1.1" id="Capa_1" xmlns="http://www.w3.org/2000/svg" xmlns:xlink="http://www.w3.org/1999/xlink" x="0px" y="0px"
	 width="516.375px" height="516.375px" viewBox="0 0 516.375 516.375" style="enable-background:new 0 0 516.375 516.375;"
	 xml:space="preserve">
<g stroke="none" stroke-width="2" fill="none" fill-rule="evenodd">
	<g stroke="#6B6C6E" stroke-width="3">
		<path d="M344.25,57.375V38.25C344.25,17.212,327.037,0,306,0h-95.625c-21.038,0-38.25,17.212-38.25,38.25v19.125h-76.5V76.5
			H420.75V57.375H344.25z M325.125,57.375H191.25V38.25c0-11.475,7.65-19.125,19.125-19.125H306c11.475,0,19.125,7.65,19.125,19.125
			V57.375z"/>
		<rect x="325.125" y="153" width="19.125" height="306"/>
		<rect x="172.125" y="153" width="19.125" height="306"/>
		<rect x="248.625" y="153" width="19.125" height="306"/>
		<path d="M95.625,459c0,32.513,24.862,57.375,57.375,57.375h210.375c32.513,0,57.375-24.862,57.375-57.375V95.625H95.625V459z
			 M114.75,114.75h286.875V459c0,21.037-17.213,38.25-38.25,38.25H153c-21.038,0-38.25-17.213-38.25-38.25V114.75z"/>
	</g>
</g>
<g>
</g>
<g>
</g>
<g>
</g>
<g>
</g>
<g>
</g>
<g>
</g>
<g>
</g>
<g>
</g>
<g>
</g>
<g>
</g>
<g>
</g>
<g>
</g>
<g>
</g>
<g>
</g>
<g>
</g>
</svg>
