<svg height="512pt" viewBox="0 0 512 512" width="512pt" xmlns="http://www.w3.org/2000/svg"><path d="m486.398438 0h-460.796876c-14.140624 0-25.601562 11.460938-25.601562 25.601562v460.796876c0 14.140624 11.460938 25.601562 25.601562 25.601562h460.796876c14.140624 0 25.601562-11.460938 25.601562-25.601562v-460.796876c0-14.140624-11.460938-25.601562-25.601562-25.601562zm8.535156 486.398438c0 4.714843-3.820313 8.535156-8.535156 8.535156h-460.796876c-4.714843 0-8.535156-3.820313-8.535156-8.535156v-460.796876c0-4.714843 3.820313-8.535156 8.535156-8.535156h460.796876c4.714843 0 8.535156 3.820313 8.535156 8.535156zm0 0"/><path d="m221.867188 59.734375c0-14.140625-11.460938-25.601563-25.601563-25.601563h-136.53125c-14.140625 0-25.601563 11.460938-25.601563 25.601563v102.398437c0 14.140626 11.460938 25.601563 25.601563 25.601563h136.53125c14.140625 0 25.601563-11.460937 25.601563-25.601563zm-110.933594 42.664063c0-9.425782 7.640625-17.066407 17.066406-17.066407s17.066406 7.640625 17.066406 17.066407c0 9.425781-7.640625 17.066406-17.066406 17.066406s-17.066406-7.640625-17.066406-17.066406zm17.066406 34.136718c20.265625.023438 37.730469 14.28125 41.8125 34.132813h-83.625c4.082031-19.851563 21.546875-34.109375 41.8125-34.132813zm76.800781 25.597656c0 4.714844-3.820312 8.535157-8.535156 8.535157h-9.214844c-2.898437-19.886719-15.59375-36.988281-33.792969-45.519531 12.394532-13.636719 11.726563-34.652344-1.507812-47.472657-13.238281-12.824219-34.261719-12.824219-47.5 0-13.234375 12.820313-13.902344 33.835938-1.507812 47.472657-18.199219 8.53125-30.894532 25.632812-33.792969 45.519531h-9.214844c-4.714844 0-8.535156-3.820313-8.535156-8.535157v-102.398437c0-4.714844 3.820312-8.535156 8.535156-8.535156h136.53125c4.714844 0 8.535156 3.820312 8.535156 8.535156zm0 0"/><path d="m469.332031 34.132812h-213.332031c-4.710938 0-8.535156 3.820313-8.535156 8.535157 0 4.710937 3.824218 8.53125 8.535156 8.53125h213.332031c4.714844 0 8.535157-3.820313 8.535157-8.53125 0-4.714844-3.820313-8.535157-8.535157-8.535157zm0 0"/><path d="m469.332031 68.265625h-213.332031c-4.710938 0-8.535156 3.820313-8.535156 8.535156 0 4.710938 3.824218 8.53125 8.535156 8.53125h213.332031c4.714844 0 8.535157-3.820312 8.535157-8.53125 0-4.714843-3.820313-8.535156-8.535157-8.535156zm0 0"/><path d="m307.199219 119.464844h110.933593c4.714844 0 8.535157-3.820313 8.535157-8.53125 0-4.714844-3.820313-8.535156-8.535157-8.535156h-110.933593c-4.710938 0-8.53125 3.820312-8.53125 8.535156 0 4.710937 3.820312 8.53125 8.53125 8.53125zm0 0"/><path d="m264.535156 110.933594c0 4.710937-3.824218 8.53125-8.535156 8.53125s-8.535156-3.820313-8.535156-8.53125c0-4.714844 3.824218-8.535156 8.535156-8.535156s8.535156 3.820312 8.535156 8.535156zm0 0"/><path d="m307.199219 153.601562h110.933593c4.714844 0 8.535157-3.820312 8.535157-8.535156 0-4.710937-3.820313-8.53125-8.535157-8.53125h-110.933593c-4.710938 0-8.53125 3.820313-8.53125 8.53125 0 4.714844 3.820312 8.535156 8.53125 8.535156zm0 0"/><path d="m264.535156 145.066406c0 4.714844-3.824218 8.535156-8.535156 8.535156s-8.535156-3.820312-8.535156-8.535156c0-4.710937 3.824218-8.53125 8.535156-8.53125s8.535156 3.820313 8.535156 8.53125zm0 0"/><path d="m307.199219 187.734375h110.933593c4.714844 0 8.535157-3.820313 8.535157-8.535156 0-4.710938-3.820313-8.53125-8.535157-8.53125h-110.933593c-4.710938 0-8.53125 3.820312-8.53125 8.53125 0 4.714843 3.820312 8.535156 8.53125 8.535156zm0 0"/><path d="m264.535156 179.199219c0 4.714843-3.824218 8.535156-8.535156 8.535156s-8.535156-3.820313-8.535156-8.535156c0-4.710938 3.824218-8.53125 8.535156-8.53125s8.535156 3.820312 8.535156 8.53125zm0 0"/><path d="m162.132812 247.464844h-61.304687c-4.15625-11.753906-16.175781-18.804688-28.464844-16.695313-12.285156 2.109375-21.269531 12.761719-21.269531 25.230469s8.984375 23.121094 21.269531 25.230469c12.289063 2.109375 24.308594-4.941407 28.464844-16.695313h18.636719v8.53125c0 4.714844 3.824218 8.535156 8.535156 8.535156s8.535156-3.820312 8.535156-8.535156v-8.53125h17.066406v17.066406c0 4.710938 3.820313 8.53125 8.53125 8.53125 4.714844 0 8.535157-3.820312 8.535157-8.53125v-25.601562c0-4.710938-3.820313-8.535156-8.535157-8.535156zm-85.332031 17.070312c-4.714843 0-8.535156-3.824218-8.535156-8.535156s3.820313-8.535156 8.535156-8.535156c4.710938 0 8.53125 3.824218 8.53125 8.535156s-3.820312 8.535156-8.53125 8.535156zm0 0"/><path d="m224.367188 244.964844 11.035156 11.035156-11.035156 11.035156c-2.21875 2.140625-3.109376 5.3125-2.328126 8.296875s3.113282 5.3125 6.09375 6.09375c2.984376.78125 6.15625-.109375 8.300782-2.324219l11.03125-11.035156 11.035156 11.035156c3.347656 3.230469 8.671875 3.1875 11.960938-.105468 3.292968-3.292969 3.339843-8.613282.105468-11.960938l-11.035156-11.035156 11.035156-11.035156c3.234375-3.347656 3.1875-8.667969-.105468-11.960938-3.289063-3.292968-8.613282-3.335937-11.960938-.105468l-11.035156 11.035156-11.03125-11.035156c-3.347656-3.230469-8.671875-3.1875-11.960938.105468-3.292968 3.292969-3.339844 8.613282-.105468 11.960938zm0 0"/><path d="m292.632812 279.101562c3.332032 3.328126 8.734376 3.328126 12.066407 0l11.035156-11.035156 11.03125 11.035156c3.347656 3.230469 8.671875 3.1875 11.964844-.105468 3.289062-3.292969 3.335937-8.613282.101562-11.960938l-11.03125-11.035156 11.03125-11.035156c3.234375-3.347656 3.1875-8.667969-.101562-11.960938-3.292969-3.292968-8.617188-3.335937-11.964844-.105468l-11.03125 11.035156-11.035156-11.035156c-3.347657-3.230469-8.671875-3.1875-11.960938.105468-3.292969 3.292969-3.339843 8.613282-.105469 11.960938l11.035157 11.035156-11.035157 11.035156c-3.332031 3.332032-3.332031 8.730469 0 12.066406zm0 0"/><path d="m407.101562 232.898438c-3.335937-3.328126-8.734374-3.328126-12.066406 0l-11.035156 11.035156-11.035156-11.035156c-3.347656-3.230469-8.667969-3.1875-11.960938.105468-3.292968 3.292969-3.335937 8.613282-.105468 11.960938l11.035156 11.035156-11.035156 11.035156c-2.214844 2.140625-3.105469 5.3125-2.324219 8.296875s3.109375 5.3125 6.09375 6.09375 6.15625-.109375 8.296875-2.324219l11.035156-11.035156 11.035156 11.035156c3.347656 3.230469 8.667969 3.1875 11.960938-.105468 3.292968-3.292969 3.335937-8.613282.105468-11.960938l-11.035156-11.035156 11.035156-11.035156c3.328126-3.332032 3.328126-8.730469 0-12.066406zm0 0"/><path d="m475.367188 232.898438c-3.332032-3.328126-8.734376-3.328126-12.066407 0l-11.035156 11.035156-11.03125-11.035156c-3.347656-3.230469-8.671875-3.1875-11.964844.105468-3.289062 3.292969-3.335937 8.613282-.101562 11.960938l11.03125 11.035156-11.03125 11.035156c-2.21875 2.140625-3.109375 5.3125-2.328125 8.296875s3.109375 5.3125 6.09375 6.09375 6.15625-.109375 8.300781-2.324219l11.03125-11.035156 11.035156 11.035156c3.347657 3.230469 8.671875 3.1875 11.960938-.105468 3.292969-3.292969 3.339843-8.613282.105469-11.960938l-11.035157-11.035156 11.035157-11.035156c3.332031-3.332032 3.332031-8.730469 0-12.066406zm0 0"/><path d="m110.933594 332.800781c-18.851563 0-34.132813 15.28125-34.132813 34.132813 0 4.710937 3.820313 8.53125 8.53125 8.53125 4.714844 0 8.535157-3.820313 8.535157-8.53125 0-9.425782 7.640624-17.066406 17.066406-17.066406 9.425781 0 17.066406 7.640624 17.066406 17.066406 0 9.425781-7.640625 17.066406-17.066406 17.066406-4.714844 0-8.535156 3.820312-8.535156 8.535156v17.066406c0 4.710938 3.820312 8.53125 8.535156 8.53125 4.710937 0 8.53125-3.820312 8.53125-8.53125v-9.609374c16.660156-4.285157 27.53125-20.292969 25.363281-37.359376-2.167969-17.0625-16.691406-29.851562-33.894531-29.832031zm0 0"/><path d="m119.464844 443.734375c0 4.710937-3.820313 8.53125-8.53125 8.53125-4.714844 0-8.535156-3.820313-8.535156-8.53125 0-4.714844 3.820312-8.535156 8.535156-8.535156 4.710937 0 8.53125 3.820312 8.53125 8.535156zm0 0"/><path d="m469.332031 401.066406h-238.933593c-4.710938 0-8.53125 3.820313-8.53125 8.535156 0 4.710938 3.820312 8.53125 8.53125 8.53125h238.933593c4.714844 0 8.535157-3.820312 8.535157-8.53125 0-4.714843-3.820313-8.535156-8.535157-8.535156zm0 0"/><path d="m349.867188 435.199219h-119.46875c-4.710938 0-8.53125 3.820312-8.53125 8.535156 0 4.710937 3.820312 8.53125 8.53125 8.53125h119.46875c4.710937 0 8.53125-3.820313 8.53125-8.53125 0-4.714844-3.820313-8.535156-8.53125-8.535156zm0 0"/><path d="m460.800781 332.800781h-221.867187c-9.425782 0-17.066406 7.640625-17.066406 17.066407v17.066406c0 9.425781 7.640624 17.066406 17.066406 17.066406h221.867187c9.425781 0 17.066407-7.640625 17.066407-17.066406v-17.066406c0-9.425782-7.640626-17.066407-17.066407-17.066407zm-221.867187 17.066407h170.667968v17.066406h-170.667968zm187.734375 17.066406v-17.066406h34.132812v17.066406zm0 0"/></svg>