<?xml version="1.0" encoding="iso-8859-1"?>
<!-- Generator: Adobe Illustrator 19.0.0, SVG Export Plug-In . SVG Version: 6.00 Build 0)  -->
<svg version="1.1" id="Capa_1" xmlns="http://www.w3.org/2000/svg" xmlns:xlink="http://www.w3.org/1999/xlink" x="0px" y="0px"
	 viewBox="0 0 490 490" style="enable-background:new 0 0 490 490;" xml:space="preserve">
<g>
	<path d="M225.717,106.377c-32.118,9.466-53.226,33.864-47.145,54.494c6.08,20.63,37.046,29.681,69.164,20.214
		c32.118-9.466,53.226-33.864,47.146-54.494C288.801,105.961,257.835,96.911,225.717,106.377z M242.104,161.974
		c-20.626,6.079-39.754,2.84-42.723-7.236c-2.97-10.075,11.344-23.171,31.97-29.25c20.626-6.079,39.754-2.839,42.724,7.236
		C277.043,142.8,262.729,155.895,242.104,161.974z"/>
	<path d="M490,139.158L142.399,44.103L0,140.232l349.444,115.179L490,139.158z M45.403,133.944l100.604-67.927l301.172,82.358
		L345.166,232.75L45.403,133.944z"/>
	<polygon points="0.546,181.825 0.546,203.09 349.444,318.528 489.454,203.638 489.454,177.515 345.166,295.866 	"/>
	<polygon points="0.546,245.509 0.546,266.775 349.444,382.212 489.454,267.323 489.454,241.2 345.166,359.55 	"/>
	<polygon points="0.546,309.193 0.546,330.459 349.444,445.897 489.454,331.007 489.454,304.884 345.166,423.235 	"/>
</g>
<g>
</g>
<g>
</g>
<g>
</g>
<g>
</g>
<g>
</g>
<g>
</g>
<g>
</g>
<g>
</g>
<g>
</g>
<g>
</g>
<g>
</g>
<g>
</g>
<g>
</g>
<g>
</g>
<g>
</g>
</svg>
