<?xml version="1.0" encoding="iso-8859-1"?>
<!-- Generator: Adobe Illustrator 16.0.0, SVG Export Plug-In . SVG Version: 6.00 Build 0)  -->
<!DOCTYPE svg PUBLIC "-//W3C//DTD SVG 1.1//EN" "http://www.w3.org/Graphics/SVG/1.1/DTD/svg11.dtd">
<svg version="1.1" id="Capa_1" xmlns="http://www.w3.org/2000/svg" xmlns:xlink="http://www.w3.org/1999/xlink" x="0px" y="0px"
	 width="284.031px" height="284.032px" viewBox="0 0 284.031 284.032" style="enable-background:new 0 0 284.031 284.032;"
	 xml:space="preserve">
<g>
	<g>
		<path d="M0,24.578v234.879c0,13.548,11.024,24.572,24.58,24.572h234.874c13.548,0,24.577-11.024,24.577-24.572V24.578
			c0-13.551-11.023-24.575-24.577-24.575H24.58C11.029,0.002,0,11.027,0,24.578z M15.6,24.578c0-4.949,4.024-8.976,8.98-8.976
			h234.874c4.946,0,8.978,4.027,8.978,8.976v234.879c0,4.946-4.021,8.973-8.978,8.973H24.58c-4.951,0-8.98-4.026-8.98-8.973V24.578z
			"/>
		<path d="M48.759,256.4h186.515c11.648,0,21.124-9.476,21.124-21.125V48.756c0-11.646-9.476-21.122-21.124-21.122H48.759
			c-11.646,0-21.122,9.476-21.122,21.122V235.27C27.637,246.924,37.112,256.4,48.759,256.4z M43.236,48.756
			c0-3.047,2.481-5.522,5.522-5.522h186.515c3.046,0,5.524,2.48,5.524,5.522V235.27c0,3.047-2.483,5.52-5.524,5.52H48.759
			c-3.047,0-5.522-2.478-5.522-5.52V48.756z"/>
		<path d="M123.755,95.232c3.562-5.656,9.59-8.485,18.09-8.485c8.653,0,14.602,2.298,17.872,6.891c3.25,4.59,4.89,9.676,4.89,15.262
			c0,4.844-1.473,9.29-4.387,13.332c-1.62,2.349-3.753,4.517-6.378,6.5l-8.028,6.281c-7.914,6.172-12.822,11.626-14.731,16.363
			c-1.892,4.733-3.067,13.314-3.509,25.735h29.863c0.071-5.88,0.549-10.217,1.433-13.01c1.391-4.407,4.204-8.257,8.47-11.567
			l7.789-6.063c7.912-6.172,13.254-11.24,16.047-15.208c4.764-6.536,7.149-14.587,7.149-24.133c0-15.572-5.494-27.33-16.473-35.264
			c-10.988-7.937-24.78-11.902-41.383-11.902c-12.637,0-23.29,2.793-31.958,8.376c-13.739,8.742-21.051,23.582-21.93,44.521h31.849
			C118.426,106.772,120.211,100.892,123.755,95.232z"/>
		<rect x="126.805" y="192.214" width="32.948" height="31.849"/>
	</g>
</g>
<g>
</g>
<g>
</g>
<g>
</g>
<g>
</g>
<g>
</g>
<g>
</g>
<g>
</g>
<g>
</g>
<g>
</g>
<g>
</g>
<g>
</g>
<g>
</g>
<g>
</g>
<g>
</g>
<g>
</g>
</svg>
