<svg id="BGs" xmlns="http://www.w3.org/2000/svg" viewBox="0 0 64 64"><defs><style>.cls-1{fill:#000;}</style></defs><title>AT - AT - Simulados</title><path class="cls-1" d="M31,8V6a2,2,0,0,0-2-2H17a2,2,0,0,0-2,2V8H12a2,2,0,0,0-2,2V58a2,2,0,0,0,2,2H52a2,2,0,0,0,2-2V10a2,2,0,0,0-2-2ZM17,6H29V27l-6-4.44L17,27ZM52,58H12V10h3V31l8-6,8,6V10H52Z"/><rect class="cls-1" x="34" y="15" width="14" height="2"/><rect class="cls-1" x="34" y="22" width="14" height="2"/><rect class="cls-1" x="34" y="29" width="14" height="2"/><rect class="cls-1" x="16" y="36" width="32" height="2"/><rect class="cls-1" x="16" y="43" width="11" height="2"/><rect class="cls-1" x="30" y="43" width="4" height="2"/><rect class="cls-1" x="37" y="43" width="11" height="2"/><rect class="cls-1" x="16" y="50" width="32" height="2"/></svg>