<?xml version="1.0" encoding="utf-8"?>
<!-- Generator: Adobe Illustrator 21.0.2, SVG Export Plug-In . SVG Version: 6.00 Build 0)  -->
<svg version="1.1" id="Capa_1" xmlns="http://www.w3.org/2000/svg" xmlns:xlink="http://www.w3.org/1999/xlink" x="0px" y="0px"
	 viewBox="0 0 512 450.8" style="enable-background:new 0 0 512 450.8;" xml:space="preserve">
<style type="text/css">
	.st0{fill:#FFFFFF;}
</style>
<g>
	<path class="st0" d="M0,192.2c0,106,114.9,192.3,256,192.3c15.7,0,31.7-1.1,47.7-3.4l127.7,67.1c2.7,1.7,5.7,2.6,8.7,2.6
		c4.1,0,8.1-1.5,11.2-4.5c5.3-5.2,6.3-13.5,2.4-19.8l-40.3-82.4c62.1-36.3,98.7-92,98.7-151.8C512,86.2,397.1,0,256,0
		C114.8,0,0,86.2,0,192.2z M31.9,192.2c0-88.4,100.5-160.4,224.1-160.4s224.1,72,224.1,160.4c0,52.2-36,101.4-96.4,131.6
		c-4,2-7,5.6-8.2,9.9c-1.2,4.3-0.6,9,1.8,12.8l31.7,56.9l-92.9-52.4c-3.3-2.1-7.4-3-11.3-2.4c-16.4,2.6-32.8,3.9-48.8,3.9
		C132.4,352.6,31.9,280.7,31.9,192.2z"/>
</g>
</svg>
